<svg width="24" height="24" viewBox="0 0 24 24" fill="none" xmlns="http://www.w3.org/2000/svg">
<path d="M20 20H4C2.897 20 2 19.103 2 18V6C2 4.897 2.897 4 4 4H20C21.103 4 22 4.897 22 6V18C22 19.103 21.103 20 20 20ZM4 5C3.449 5 3 5.449 3 6V18C3 18.551 3.449 19 4 19H20C20.551 19 21 18.551 21 18V6C21 5.449 20.551 5 20 5H4Z" fill="#313131"/>
<path d="M7 11C5.897 11 5 10.103 5 9C5 7.897 5.897 7 7 7C8.103 7 9 7.897 9 9C9 10.103 8.103 11 7 11ZM7 8C6.449 8 6 8.449 6 9C6 9.551 6.449 10 7 10C7.551 10 8 9.551 8 9C8 8.449 7.551 8 7 8Z" fill="#313131"/>
<path d="M2.56959 18.9308C2.44159 18.9308 2.31359 18.8818 2.21559 18.7848C2.02059 18.5898 2.02059 18.2728 2.21559 18.0778L6.93859 13.3548C7.50459 12.7888 8.49359 12.7888 9.05959 13.3548L10.4656 14.7608L14.3576 10.0908C14.6406 9.75178 15.0566 9.55478 15.4996 9.55078H15.5106C15.9486 9.55078 16.3636 9.74078 16.6496 10.0738L21.8796 16.1758C22.0596 16.3848 22.0356 16.7008 21.8256 16.8808C21.6166 17.0608 21.3016 17.0378 21.1206 16.8268L15.8906 10.7248C15.7936 10.6128 15.6596 10.5508 15.5106 10.5508C15.4066 10.5418 15.2236 10.6138 15.1266 10.7308L10.8836 15.8218C10.7936 15.9298 10.6626 15.9948 10.5216 16.0008C10.3796 16.0108 10.2446 15.9548 10.1456 15.8548L8.35259 14.0618C8.16359 13.8738 7.83459 13.8738 7.64559 14.0618L2.92259 18.7848C2.82559 18.8818 2.69759 18.9308 2.56959 18.9308Z" fill="#313131"/>
</svg>
