<svg width="24" height="24" viewBox="0 0 24 24" fill="none" xmlns="http://www.w3.org/2000/svg">
<path d="M21.799 22.327H1.36553C1.16351 22.327 1.00098 22.2012 1.00098 22.0448V15.7393C1.00098 15.5829 1.16351 15.457 1.36553 15.457H21.799C22.001 15.457 22.1635 15.5829 22.1635 15.7393V22.0448C22.1635 22.2012 22.001 22.327 21.799 22.327ZM1.73009 21.7625H21.4344V16.0216H1.73009V21.7625Z" fill="#313131"/>
<path d="M21.7985 16.187H1.36513C1.2345 16.187 1.1145 16.1171 1.04918 16.0047C0.983862 15.8923 0.983862 15.7541 1.04766 15.6402L4.47298 9.65841C4.53829 9.54448 4.65829 9.47461 4.78893 9.47461H10.4988C10.7008 9.47461 10.8634 9.63714 10.8634 9.83917C10.8634 10.0412 10.7008 10.2037 10.4988 10.2037H5.00158L1.99399 15.4579H21.1515L17.9631 10.2037H13.9454C13.7434 10.2037 13.5808 10.0412 13.5808 9.83917C13.5808 9.63714 13.7434 9.47461 13.9454 9.47461H18.1682C18.2958 9.47461 18.4142 9.54144 18.4796 9.65081L22.1084 15.6341C22.1768 15.7465 22.1783 15.8878 22.1145 16.0017C22.0507 16.1156 21.9307 16.187 21.7985 16.187Z" fill="#313131"/>
<path d="M14.9872 13.1959H8.17608C7.97406 13.1959 7.81152 13.0334 7.81152 12.8314C7.81152 12.6293 7.97406 12.4668 8.17608 12.4668H14.9872C15.1892 12.4668 15.3518 12.6293 15.3518 12.8314C15.3518 13.0334 15.1892 13.1959 14.9872 13.1959Z" fill="#313131"/>
<path d="M19.0337 8.39211C18.4459 8.39211 17.8109 8.10198 17.2444 7.84375C16.9998 7.73286 16.7704 7.62805 16.5927 7.57033C16.3785 7.50198 15.9958 7.45793 15.5902 7.41084L15.5598 7.4078C14.7578 7.31514 13.8494 7.21033 13.4104 6.81388C13.1279 6.56021 12.9912 6.22451 13.0231 5.86907C13.0535 5.53185 13.2358 5.22957 13.5107 5.06097C13.9102 4.81337 14.6104 4.86198 15.815 4.96679C16.0747 4.98957 16.3421 5.01236 16.6079 5.03059C17.334 5.08071 18.2363 5.11109 18.7709 4.89236C18.9578 4.81641 19.1704 4.90603 19.2464 5.09286C19.3223 5.2797 19.2327 5.49236 19.0459 5.56831C18.376 5.84173 17.4115 5.81742 16.5563 5.75818C16.2844 5.73995 16.0125 5.71565 15.7497 5.69286C15.2894 5.65337 14.855 5.6154 14.5041 5.61084C14.0499 5.60628 13.9208 5.664 13.892 5.68071C13.8145 5.72932 13.7583 5.82805 13.7477 5.93438C13.7401 6.01945 13.7598 6.14856 13.8965 6.2716C14.1623 6.5116 15.0525 6.61489 15.6418 6.68324L15.6722 6.68628C16.134 6.73945 16.532 6.78502 16.813 6.87616C17.0317 6.94603 17.2808 7.05995 17.5451 7.17995C18.0555 7.41236 18.6904 7.70248 19.1279 7.65843C19.6763 7.60223 20.094 7.29995 20.3431 7.12071L20.3826 7.09185C20.413 7.07059 20.4418 7.0478 20.4722 7.02502C20.7517 6.80932 21.0844 6.66654 21.4337 6.6073V4.14654C21.3198 4.15413 21.2089 4.15869 21.1011 4.15869C20.1973 4.15869 19.456 3.89742 18.7861 3.66046C18.3304 3.49945 17.9006 3.34755 17.4737 3.29894C17.0104 3.24578 16.2874 3.37185 15.3821 3.66046C15.1907 3.72122 14.9856 3.61641 14.9234 3.4235C14.8626 3.23211 14.9674 3.02704 15.1603 2.96476C16.1765 2.6397 16.9831 2.50755 17.5558 2.57286C18.0661 2.63059 18.534 2.79616 19.0292 2.97084C19.8327 3.25489 20.6636 3.54805 21.7421 3.37641C21.8469 3.3597 21.9547 3.39008 22.0368 3.45843C22.1173 3.52831 22.1644 3.62856 22.1644 3.73641V6.93843C22.1644 7.14046 22.0018 7.30299 21.7998 7.30299C21.4793 7.30299 21.1664 7.4078 20.9188 7.59919C20.8839 7.62654 20.8474 7.65388 20.8109 7.6797L20.773 7.70704C20.4844 7.91514 19.9482 8.304 19.2039 8.37995C19.1461 8.38907 19.0899 8.39211 19.0337 8.39211Z" fill="#313131"/>
<path d="M13.0492 11.7172C12.9854 11.7172 12.9216 11.7005 12.8639 11.6656L7.69021 8.59874C7.60666 8.55013 7.54742 8.46963 7.52312 8.37545C7.49882 8.28127 7.51401 8.18254 7.56261 8.099L11.6654 1.17849C11.714 1.09495 11.7945 1.0357 11.8887 1.0114C11.9829 0.987097 12.0816 1.00229 12.1651 1.05089L17.3388 4.11773C17.4224 4.16634 17.4816 4.24684 17.5059 4.34102C17.5302 4.4352 17.515 4.53393 17.4664 4.61748L16.8953 5.58051C16.8254 5.699 16.6948 5.76735 16.5565 5.75824C16.2846 5.74001 16.0127 5.7157 15.7515 5.69292C15.2912 5.65343 14.8568 5.61545 14.5059 5.61089C14.0517 5.60634 13.9226 5.66406 13.8938 5.68077C13.8163 5.72938 13.7601 5.82811 13.7494 5.93444C13.7419 6.0195 13.7616 6.14862 13.8983 6.27165C14.1641 6.51165 15.0543 6.61495 15.6436 6.6833C15.7667 6.69697 15.873 6.77292 15.9277 6.88381C15.9824 6.99469 15.9778 7.12532 15.914 7.23165L13.3636 11.538C13.2953 11.6534 13.1738 11.7172 13.0492 11.7172ZM8.37527 8.15672L12.9216 10.8529L15.0041 7.3395C14.3707 7.25292 13.7494 7.12077 13.4107 6.81393C13.1282 6.56026 12.9915 6.22457 13.0234 5.86912C13.0538 5.53191 13.236 5.22963 13.511 5.06102C13.9105 4.81343 14.6107 4.86203 15.8153 4.96684C16.0021 4.98355 16.1935 5.00026 16.3849 5.01545L16.6553 4.55975L12.1074 1.86355L8.37527 8.15672Z" fill="#313131"/>
</svg>
