<svg width="24" height="24" viewBox="0 0 24 24" fill="none" xmlns="http://www.w3.org/2000/svg">
<g clip-path="url(#clip0_1932_3533)">
<path d="M19.349 23.6226C19.349 23.8296 19.1791 23.9995 18.9721 23.9995C18.7651 23.9995 18.6007 23.8296 18.6007 23.6226V19.468V18.5233H5.39879V19.468V23.6226C5.39879 23.8296 5.22911 23.9995 5.02211 23.9995C4.81511 23.9995 4.65067 23.8296 4.65067 23.6226V19.8392H2.99504C2.77229 19.8392 2.56004 19.7916 2.37967 19.6907C2.18861 19.59 2.02942 19.4466 1.91804 19.2557L0.68167 17.1913C0.570295 17.0057 0.522482 16.8148 0.527732 16.6183C0.532982 16.4168 0.596732 16.2257 0.718795 16.0506C0.83542 15.8809 0.989357 15.7481 1.16973 15.6634C1.35011 15.5732 1.54661 15.5254 1.75886 15.5254H22.2408C22.453 15.5254 22.6494 15.5732 22.8243 15.6634C23.0101 15.7481 23.164 15.8809 23.2807 16.0506C23.3975 16.2259 23.4612 16.4168 23.4719 16.6183C23.477 16.8148 23.4241 17.0055 23.3182 17.1913L22.0764 19.2557C21.965 19.4468 21.811 19.59 21.62 19.6907C21.4344 19.7916 21.2274 19.8392 21.0046 19.8392H19.3492L19.349 23.6226ZM14.3397 23.6226C14.3397 23.8296 14.1751 23.9995 13.9683 23.9995C13.7615 23.9995 13.5918 23.8296 13.5918 23.6226C13.5918 23.1821 13.4165 22.7843 13.1247 22.4976C12.8382 22.2058 12.4404 22.0309 11.9997 22.0309C11.5595 22.0309 11.1614 22.206 10.8697 22.4976C10.5832 22.7843 10.4028 23.1821 10.4028 23.6226C10.4028 23.8296 10.2384 23.9995 10.0314 23.9995C9.82436 23.9995 9.65448 23.8296 9.65448 23.6226C9.65448 22.9753 9.91998 22.3916 10.3443 21.9671C10.7688 21.5425 11.3525 21.2826 11.9997 21.2826C12.6474 21.2826 13.231 21.5426 13.6555 21.9671C14.0799 22.3916 14.3397 22.9753 14.3397 23.6226ZM4.65067 19.0911V18.1466C4.65067 17.9396 4.81511 17.7752 5.02211 17.7752H18.9721C19.1791 17.7752 19.349 17.9396 19.349 18.1466V19.0911H21.0044C21.1051 19.0911 21.1955 19.0699 21.2695 19.0328C21.3387 18.9956 21.397 18.9424 21.4394 18.8734L22.6758 16.804C22.8295 16.6022 22.6705 16.2733 22.2408 16.2733H1.75886C1.37673 16.2733 1.16448 16.5439 1.34486 16.8411L2.55986 18.8734C2.59698 18.9422 2.65548 18.9955 2.72429 19.0328C2.80398 19.0697 2.89417 19.0911 2.99486 19.0911H4.65067Z" fill="#313131"/>
<path d="M17.3063 6.32952C17.3063 5.89977 16.9667 5.56002 16.5368 5.56002C16.1123 5.56002 15.7675 5.89977 15.7675 6.32952C15.7675 6.7542 16.1123 7.09902 16.5368 7.09902C16.9667 7.09902 17.3063 6.74877 17.3063 6.32952ZM17.9803 6.80183L18.8134 7.27414C19.36 7.59252 19.7314 7.97989 19.9701 8.44677C20.2088 8.90314 20.3042 9.41783 20.3042 9.99083V14.5116C20.3042 14.7186 20.1347 14.8885 19.9275 14.8885C19.7258 14.8885 19.5563 14.7186 19.5563 14.5116V9.99083C19.5563 9.52939 19.482 9.12589 19.3067 8.78633C19.1372 8.45202 18.8558 8.16552 18.442 7.92664L17.5772 7.43314C17.3065 7.68795 16.9403 7.84714 16.537 7.84714C15.6987 7.84714 15.0195 7.16258 15.0195 6.32952C15.0195 5.4912 15.6987 4.80664 16.537 4.80664C17.3757 4.80664 18.0546 5.49102 18.0546 6.32952C18.0544 6.49414 18.028 6.65314 17.9803 6.80183Z" fill="#313131"/>
<path d="M10.0465 9.8635L11.4739 8.25569L11.3095 7.02982C11.2831 6.82282 11.4263 6.63719 11.6279 6.61057C11.8349 6.58413 12.0205 6.72738 12.0471 6.92894L12.2223 8.18125L12.9597 8.8285L15.0134 9.72532C15.4431 9.91113 15.7881 10.2136 16.0268 10.585C16.2708 10.9617 16.3981 11.4128 16.3981 11.8849V14.3894C16.3981 14.5911 16.2336 14.7608 16.0268 14.7608C15.82 14.7608 15.6499 14.5911 15.6499 14.3894V11.8851C15.6499 11.5508 15.5598 11.2431 15.4006 10.9883C15.2414 10.7389 15.0079 10.5374 14.716 10.4046L12.9918 9.6565L12.2755 11.9063C12.2118 12.1024 11.9993 12.214 11.803 12.1504C11.7659 12.1398 11.7288 12.1186 11.6969 12.0974L10.4234 11.1634V14.0819C10.4234 14.2889 10.2535 14.4588 10.0467 14.4588C9.83988 14.4588 9.67 14.2889 9.67 14.0819V11.1634L8.3965 12.0974C8.36462 12.1186 8.3275 12.1399 8.28513 12.1504C8.08881 12.214 7.88181 12.1024 7.81806 11.9063L7.10181 9.6565L5.37719 10.4046C5.08544 10.5374 4.852 10.7389 4.69281 10.9883C4.52837 11.2431 4.44344 11.5508 4.44344 11.8851V14.3896C4.44344 14.5913 4.27356 14.761 4.06675 14.761C3.85994 14.761 3.69531 14.5913 3.69531 14.3896V11.8851C3.69531 11.413 3.82281 10.9619 4.06675 10.5852C4.30544 10.2138 4.65044 9.91132 5.08019 9.7255L7.13369 8.82869L7.87113 8.18144L8.04625 6.92913C8.07287 6.72757 8.2585 6.58432 8.4655 6.61075C8.66706 6.63738 8.8105 6.823 8.78388 7.03L8.61944 8.25588L10.0465 9.8635ZM7.765 9.26913L8.37513 11.1901L9.49488 10.3675L8.18969 8.89769L7.765 9.26913ZM11.9039 8.89769L10.5985 10.3675L11.7181 11.1901L12.3284 9.26913L11.9039 8.89769Z" fill="#313131"/>
<path d="M9.91947 8.03362C9.62228 8.03362 9.34103 7.98056 9.08116 7.87969C8.81566 7.77356 8.57172 7.61962 8.34353 7.41806L7.95616 7.07325C7.32466 6.51075 7.01172 5.73075 7.01172 4.887V2.95556C7.01172 2.07469 7.31941 1.33725 7.85547 0.811875C8.39116 0.297 9.14472 0 10.0466 0C10.9487 0 11.7022 0.297 12.2383 0.811875C12.774 1.33706 13.0818 2.07469 13.0818 2.95556V4.887C13.0818 5.73075 12.7687 6.51075 12.1374 7.07325L11.75 7.41806C11.5218 7.61962 11.2777 7.77356 11.0124 7.87969C10.7471 7.98056 10.4713 8.03362 10.1741 8.03362H9.91947ZM7.77034 2.70619C8.10466 2.80162 8.74141 2.85469 9.07572 2.03231C9.15522 1.84125 9.37272 1.75106 9.56378 1.82531C9.66466 1.86769 9.73891 1.94719 9.77603 2.04281C9.96709 2.46187 10.2217 2.7645 10.5347 2.96606C11.0229 3.27375 11.6437 3.33225 12.3335 3.16762V2.95537C12.3335 2.2815 12.1108 1.72969 11.718 1.34756C11.3201 0.965625 10.7471 0.748125 10.0466 0.748125C9.34628 0.748125 8.76784 0.965625 8.37503 1.34775C8.03566 1.68206 7.82341 2.14369 7.77034 2.70619ZM12.3337 3.93712C10.7312 4.2555 9.85028 3.51262 9.42053 2.92369C8.90584 3.56044 8.23197 3.57094 7.75966 3.47025V4.887C7.75966 5.5185 7.97734 6.0915 8.45491 6.516L8.84228 6.861C9.00147 7.00425 9.17116 7.11037 9.35172 7.17937C9.52684 7.24837 9.71247 7.2855 9.91947 7.2855H10.1741C10.3811 7.2855 10.5667 7.24837 10.7418 7.17937C10.9222 7.11037 11.0867 7.00425 11.2511 6.861L11.6385 6.516C12.116 6.0915 12.3337 5.5185 12.3337 4.887V3.93712Z" fill="#313131"/>
</g>
<defs>
<clipPath id="clip0_1932_3533">
<rect width="24" height="24" fill="white"/>
</clipPath>
</defs>
</svg>
